<?xml version="1.0" encoding="utf-8"?>
<!-- Generator: Adobe Illustrator 22.0.0, SVG Export Plug-In . SVG Version: 6.00 Build 0)  -->
<svg version="1.1" id="Layer_1" xmlns="http://www.w3.org/2000/svg" xmlns:xlink="http://www.w3.org/1999/xlink" x="0px" y="0px"
	 viewBox="0 0 512 512" style="enable-background:new 0 0 512 512;" xml:space="preserve">
<style type="text/css">
	.st0{fill:#DC1F26;}
</style>
<g>
	<path class="st0" d="M375.5,257v5.5c0,6.1-5,11.1-11.1,11.1l-114.3,0c-6.1,0-11.1-5-11.1-11.1V257c0-6.1,5-11.1,11.1-11.1l114.3,0
		C370.4,245.9,375.5,250.9,375.5,257z"/>
	<path class="st0" d="M256.4,103.1h4.8c5.4,0,9.8,4.4,9.8,9.8l0,156.9c0,5.4-4.4,9.8-9.8,9.8h-4.8c-5.4,0-9.8-4.4-9.8-9.8l0-156.9
		C246.6,107.5,251,103.1,256.4,103.1z"/>
</g>
<circle class="st0" cx="256.3" cy="257.1" r="22.5"/>
<g>
	<path class="st0" d="M386.8,447.8c-4.2-0.9-8.2-3.2-11-6.8c-6.3-8.1-4.9-19.9,3.3-26.2c17.8-13.8,33-30.3,45.2-49.1
		c13.7-21.1,23.2-44.4,28.3-69.4c22-108.4-48.2-214.6-156.7-236.7c-52.6-10.7-106.3-0.2-151,29.5c-8.6,5.7-20.2,3.4-25.9-5.2
		c-5.7-8.6-3.4-20.2,5.2-25.9c53.1-35.2,116.7-47.7,179.1-35c128.6,26.1,212,152.1,185.8,280.7c-6,29.5-17.3,57.2-33.6,82.3
		c-14.5,22.3-32.5,41.9-53.6,58.2C397.5,447.7,392,448.8,386.8,447.8z"/>
	<path class="st0" d="M52.8,171.2c-9.1-4.8-12.7-16.1-7.9-25.2l0.1-0.2c7.9-15.1,17.4-29.4,28.3-42.3c6.6-7.9,18.4-9,26.3-2.4
		c7.9,6.6,9,18.4,2.4,26.3c-9.1,10.9-17.2,23-23.9,35.7l-0.1,0.2C73.3,172.4,62,176,52.8,171.2z"/>
	<path class="st0" d="M32.3,271.1c-8.4-1.9-14.6-9.5-14.5-18.5c0.2-12.4,1.4-24.9,3.5-37.2c1.8-10.2,11.5-17,21.6-15.2
		c10.2,1.8,17,11.5,15.2,21.6c-1.8,10.4-2.8,20.9-3,31.3c-0.2,10.3-8.7,18.5-19,18.4C34.9,271.6,33.6,271.4,32.3,271.1z"/>
	<path class="st0" d="M47.9,356.4c-5.6-1.4-10.5-5.4-12.8-11.1c-4.1-10.2-7.6-20.9-10.3-31.6c-2.5-10,3.6-20.1,13.6-22.6
		c10-2.5,20.1,3.6,22.6,13.6c2.3,9,5.2,18,8.7,26.6c3.9,9.6-0.8,20.4-10.3,24.3C55.6,357.1,51.6,357.3,47.9,356.4z"/>
	<path class="st0" d="M94.8,429.6c-2.2-0.9-4.3-2.2-6.1-4c-7.2-7.1-14-14.8-20.2-22.8c-6.3-8.1-4.9-19.9,3.3-26.2
		c8.1-6.3,19.9-4.9,26.2,3.3c5.3,6.7,11,13.2,17,19.2c7.3,7.3,7.4,19.1,0.1,26.4C109.6,430.9,101.6,432.3,94.8,429.6z"/>
	<path class="st0" d="M230.8,493.5c-9.4-1.8-16-10.5-15-20.2c1-10.3,10.2-17.8,20.4-16.7c5.4,0.5,10.8,0.8,16.1,0.9
		c10.3,0.2,18.5,8.7,18.3,19c-0.2,10.3-8.7,18.5-19,18.3c-6.4-0.1-12.8-0.5-19.1-1.1C231.9,493.7,231.4,493.6,230.8,493.5z"/>
	<path class="st0" d="M137.2,459.3c-2.7-5.2-2.9-11.6,0-17.2c4.8-9.2,16-12.7,25.2-8c7.1,3.7,14.5,7,21.9,9.8
		c9.7,3.6,14.5,14.4,10.9,24.1c-3.6,9.7-14.4,14.5-24.1,10.9c-8.8-3.3-17.6-7.2-26-11.6C141.6,465.4,138.9,462.6,137.2,459.3z"/>
	<path class="st0" d="M310.9,486.6c-6.7-1.4-12.4-6.4-14.3-13.4c-2.7-10,3.2-20.2,13.1-22.9c3.7-1,7.5-2.2,11.1-3.4
		c9.8-3.3,20.4,2,23.7,11.8c3.3,9.8-2,20.4-11.8,23.7c-4.4,1.5-8.8,2.8-13.2,4C316.6,487.1,313.7,487.1,310.9,486.6z"/>
</g>
<path class="st0" d="M381.2,453l66.6-22.5c6.9-2.3,8.6-11.2,3.2-16l-52.8-46.4c-5.4-4.8-14-1.9-15.4,5.2L369,442.3
	C367.5,449.4,374.3,455.3,381.2,453z"/>
</svg>
